<?xml version="1.0" encoding="UTF-8"?>
<svg version="1.1" viewBox="0 0 1600 1600" width="1280" height="1280" xmlns="http://www.w3.org/2000/svg">
<path transform="translate(0)" d="m0 0h1600v1600h-1600v-1600z" fill="#000100"/>
<path transform="translate(716)" d="m0 0h884v1600h-186c2.32-4.64 3.46-5.02 8-7.19 12.3-6.4 19.7-14.4 24.3-27.5 2.48-12.3 1.83-25.5 1.82-38 0.00136-1.71 0.00314-3.42 0.00531-5.13 0.00452-4.6 0.00281-9.19-3.79e-4 -13.8-0.00256-4.86-1.76e-4 -9.71 0.00139-14.6 0.00181-8.16-5.61e-4 -16.3-0.00534-24.5-0.00542-9.36-0.0037-18.7 0.00183-28.1 0.00458-8.1 0.00516-16.2 0.00256-24.3-0.00154-4.81-0.00183-9.62 0.00154-14.4 0.00693-11.8-0.0235-23.7-0.136-35.5-0.00966-1.1-0.00966-1.1-0.0195-2.23-0.0444-4.72-0.13-9.44-0.239-14.2-0.0136-1.13-0.0272-2.27-0.0412-3.43-0.408-13.7-5.94-26-15.9-35.5-11.3-9.34-23.4-12-37.7-12-1.03-0.00844-2.07-0.0169-3.13-0.0256-3.38-0.0256-6.76-0.0379-10.1-0.0504-2.36-0.0162-4.72-0.0334-7.08-0.0515-6.19-0.0455-12.4-0.0804-18.6-0.112-9.93-0.0521-19.9-0.117-29.8-0.188-3.47-0.0229-6.95-0.0391-10.4-0.0547-2.11-0.0134-4.22-0.027-6.33-0.0409-0.972-0.00261-1.94-0.00523-2.95-0.00792-0.879-0.0069-1.76-0.0138-2.66-0.0209-0.768-0.00385-1.54-0.00771-2.33-0.0117-1.75-0.133-1.75-0.133-2.75-1.13-0.126-2.42-0.186-4.82-0.205-7.24-0.00985-0.773-0.0197-1.55-0.0299-2.34-0.032-2.63-0.0565-5.27-0.0807-7.9-0.0207-1.91-0.0417-3.81-0.0629-5.72-0.057-5.31-0.106-10.6-0.152-15.9-0.0302-3.43-0.062-6.86-0.0939-10.3-0.576-62.9-0.473-126-0.418-189 0.0173-19.7 0.0254-39.3 0.0326-59 0.0031-8.31 0.00649-16.6 0.00988-24.9 3.75e-4 -0.922 7.5e-4 -1.84 0.00114-2.79 0.00887-21.7 0.0206-43.4 0.0331-65.1 5.44e-4 -0.944 0.00109-1.89 0.00165-2.86 0.0128-22.1 0.0269-44.3 0.043-66.4 6.97e-4 -0.96 0.00139-1.92 0.00211-2.91 0.00282-3.88 0.00564-7.75 0.00846-11.6 0.00141-1.94 0.00282-3.87 0.00423-5.81 0.00141-1.93 0.00281-3.87 0.00422-5.8 0.0232-32 0.0397-63.9 0.0487-95.9 0.00128-4.5 0.00264-9.01 0.00408-13.5 4.22e-4 -1.33 4.22e-4 -1.33 8.53e-4 -2.68 0.00474-14.2 0.0169-28.4 0.032-42.6 0.0151-14.2 0.0231-28.4 0.0238-42.7 6.53e-4 -8.43 0.00693-16.9 0.0212-25.3 0.0101-6.29 0.0097-12.6 0.00528-18.9-1.51e-4 -2.54 0.0031-5.09 0.0101-7.63 9e-3 -3.46 0.00563-6.91-7.85e-4 -10.4 0.00554-0.987 0.0111-1.97 0.0168-2.99-0.0669-14.7-3.71-26.7-13.9-37.7-8.75-8.22-18.2-11.5-29.9-12.1-0.843-0.042-1.69-0.084-2.56-0.127-8.78-0.409-17.5-0.497-26.3-0.528-1.78-0.00963-3.57-0.0196-5.35-0.03-4.86-0.0269-9.71-0.0481-14.6-0.068-4.2-0.0179-8.4-0.0389-12.6-0.0599-12.8-0.0636-25.5-0.118-38.3-0.169-6.18-0.025-12.4-0.0513-18.5-0.078-75.6-0.327-151-0.464-252-0.452-1.43 3.2e-4 -2.85 6.4e-4 -4.28 9.6e-4 -40.8 0.00931-81.7 0.0308-122 0.055-15.6 0.0093-31.3 0.0183-46.9 0.027-0.744 4.15e-4 -1.49 8.29e-4 -2.25 0.00126-17 0.00945-34 0.018-50.9 0.0237-1.07 3.61e-4 -1.07 3.61e-4 -2.15 7.3e-4 -7.09 0.00238-14.2 0.00461-21.3 0.00661-15.1 0.00428-30.2 0.0113-45.2 0.024-10.8 0.00913-21.6 0.0149-32.5 0.0171-5.84 0.00135-11.7 0.00439-17.5 0.0118-5.32 0.0067-10.6 0.00889-16 0.00736-1.93 2.73e-4 -3.86 0.00227-5.79 0.00609-2.61 0.00493-5.21 0.0038-7.82 0.00105-1.14 0.00437-1.14 0.00437-2.31 0.00883-5.17-0.0149-5.17-0.0149-7.4-1.13-0.0702-7.66-0.123-15.3-0.155-23-0.0155-3.56-0.0364-7.12-0.0709-10.7-0.282-29.9-0.282-29.9 3.23-44.3l0.848-3.83c6.37-28 22.4-53.7 42.2-74.2 0.692-0.767 1.38-1.53 2.1-2.32 17.8-19.1 43.4-30.2 68.2-37 0.842-0.243 1.68-0.485 2.55-0.735 20.9-5.44 43.4-4.31 64.8-4.48 3.8-0.0339 7.61-0.0789 11.4-0.125 1.14-0.00528 2.29-0.0106 3.46-0.016 14.8-0.183 26.6-3.1 37.7-13.4 7.49-8.06 11.1-16.7 12-27.5 0.0797-0.919 0.159-1.84 0.242-2.78 0.793-9.88 0.877-19.7 0.863-29.6 0.00436-2.01 0.00955-4.01 0.0155-6.02 0.0132-5.38 0.014-10.8 0.0114-16.1-0.00108-4.51 0.00384-9.02 0.00861-13.5 0.011-10.6 0.0116-21.3 0.00549-31.9-0.00606-10.9 0.00634-21.9 0.0276-32.8 0.0176-9.44 0.0236-18.9 0.0204-28.3-0.00181-5.62 7.8e-4 -11.2 0.0147-16.9 0.0126-5.27 0.0106-10.5-0.00241-15.8-0.00236-1.93 3.49e-4 -3.86 0.00862-5.79 0.0713-17.9-2.78-31.2-15.7-44.6-4.29-4.11-8.66-7.29-13.9-10.1-0.594-0.338-1.19-0.675-1.8-1.02v-1z" fill="#FBFDFD"/>
<path transform="translate(643 97.8)" d="m0 0c1.9-0.084 1.9-0.084 4.89 0.15 2.03 3.05 2.25 3.62 2.24 7.04 0.00412 1.23 0.00412 1.23 0.00833 2.49-0.00719 0.896-0.0144 1.79-0.0218 2.72 2.92e-4 0.947 5.84e-4 1.89 8.85e-4 2.87-0.00139 3.13-0.017 6.27-0.0326 9.4-0.00373 2.17-0.00658 4.34-0.00858 6.51-0.00764 5.72-0.0273 11.4-0.0494 17.1-0.0204 5.83-0.0296 11.7-0.0397 17.5-0.0215 11.4-0.0556 22.9-0.0977 34.3-0.896 0.0784-1.79 0.157-2.72 0.238-3.4 0.3-6.79 0.605-10.2 0.914-1.46 0.131-2.91 0.261-4.37 0.388-37 3.23-72.5 13.8-105 32.5-0.749 0.433-1.5 0.866-2.27 1.31-14.2 8.26-28.4 17.1-40.4 28.5-2.02 1.9-4.09 3.72-6.2 5.53-12 10.5-22 22.7-31.2 35.7-0.426 0.596-0.852 1.19-1.29 1.81-11.5 16.2-20.7 34-28.7 52.2-0.531 1.19-1.06 2.38-1.61 3.61-18.3 43.3-16.6 89.6-16.6 136 1.03e-4 5.71-0.0137 11.4-0.0308 17.1-0.0112 4.45-0.0131 8.91-0.0126 13.4-0.00117 2.1-0.00553 4.21-0.0133 6.31-0.577 19.9-0.577 19.9 5.12 38.6 0.492 0.95 0.985 1.9 1.49 2.88 1.64 2.56 3.48 4.43 5.63 6.56v2c0.521 0.238 1.04 0.477 1.58 0.723 3.82 2.02 7.36 4.49 10.9 6.91 0.588 0.387 1.18 0.775 1.78 1.17 0.519 0.349 1.04 0.697 1.57 1.06 5.86 3.12 11.1 4.53 17.7 4.81 0.76 0.0331 1.52 0.0661 2.3 0.1 12.1 0.455 24.1 0.374 36.2 0.373 3.81 8.38e-4 7.62 0.00746 11.4 0.0133 6.66 0.00946 13.3 0.0153 20 0.0188 9.91 0.00518 19.8 0.016 29.7 0.0281 16.7 0.0201 33.3 0.0358 50 0.0492 22.8 0.0183 45.5 0.043 68.3 0.0694 10.6 0.0123 21.2 0.0243 31.8 0.0362 1.06 0.00119 2.12 0.00239 3.22 0.00361 25.2 0.0283 50.5 0.0535 75.7 0.0782 1.1 0.00108 2.21 0.00216 3.35 0.00328 19 0.0186 38.1 0.0371 57.1 0.0555 15.7 0.0152 31.4 0.0304 47.1 0.0457 1.11 0.00108 2.21 0.00216 3.35 0.00327 25.2 0.0246 50.5 0.0502 75.7 0.0785 1.59 0.00179 1.59 0.00179 3.21 0.00361 10.6 0.0119 21.1 0.024 31.7 0.0363 22.7 0.0264 45.5 0.05 68.2 0.0682 16.6 0.0132 33.1 0.0299 49.7 0.0501 9.85 0.0119 19.7 0.021 29.5 0.026 6.57 0.00366 13.1 0.0109 19.7 0.0211 3.75 0.00572 7.5 0.00979 11.2 0.00953 4.02-2.5e-4 8.05 0.00709 12.1 0.0153 1.18-0.00131 2.37-0.00262 3.58-0.00397 1.06 0.00342 2.12 0.00685 3.22 0.0104 0.922 8.68e-4 1.84 0.00174 2.79 0.00263 2.07 0.127 2.07 0.127 3.07 1.13 0.0989 1.64 0.127 3.29 0.128 4.93 0.00475 1.62 0.00475 1.62 0.0096 3.26-0.00159 1.2-0.00319 2.4-0.00483 3.64 0.00224 1.27 0.00449 2.53 0.0068 3.84 0.00615 3.55 6e-3 7.1 0.00493 10.6-7.23e-5 3.85 0.00563 7.7 0.0106 11.5 8e-3 6.76 0.0123 13.5 0.0142 20.3 0.00289 10 0.0115 20.1 0.0214 30.1 0.0165 16.9 0.0287 33.8 0.0387 50.7 0.0144 24.2 0.0372 48.3 0.0617 72.5 0.00979 9.69 0.0193 19.4 0.0288 29.1 0.00106 1.08 0.00212 2.15 0.00321 3.26 0.0252 25.6 0.0477 51.3 0.0693 76.9 9.5e-4 1.12 0.0019 2.24 0.00288 3.4 0.0221 26.2 0.043 52.4 0.0617 78.5 8.04e-4 1.13 0.00161 2.25 0.00244 3.41 0.00405 5.67 0.00809 11.3 0.0121 17 7.99e-4 1.12 0.0016 2.24 0.00242 3.4 0.00161 2.26 0.00322 4.53 0.00483 6.79 0.0266 37.4 0.06 74.8 0.101 112 0.00575 5.28 0.0114 10.6 0.017 15.8 0.0011 1.04 0.0022 2.08 0.00334 3.15 0.0175 16.7 0.0277 33.5 0.0349 50.2 0.00739 16.8 0.0218 33.6 0.0434 50.5 0.0126 9.99 0.0197 20 0.0187 30-6.96e-5 6.68 0.00707 13.4 0.0201 20 0.00718 3.8 0.0112 7.61 0.00648 11.4-0.00507 4.1 0.00531 8.2 0.0171 12.3-0.00394 1.17-0.00787 2.35-0.0119 3.56 0.0835 16.3 3.42 30.6 15 42.7 7.93 6.75 16.9 11 27.2 12.1 1.18 0.126 1.18 0.126 2.37 0.255 10.1 0.993 20.3 0.98 30.5 1.02 2.12 0.0162 4.25 0.0334 6.37 0.0515 5.53 0.0452 11.1 0.0803 16.6 0.112 8.91 0.0524 17.8 0.117 26.7 0.188 3.11 0.0228 6.21 0.0391 9.32 0.0547 1.88 0.0134 3.77 0.027 5.65 0.0409 0.866 0.00261 1.73 0.00523 2.62 0.00792 5.9 0.052 5.9 0.052 7.02 1.17 0.0953 3.04 0.126 6.07 0.114 9.11 1.46e-4 0.956 2.92e-4 1.91 4.43e-4 2.9-7e-4 3.18-0.00849 6.35-0.0163 9.53-0.00186 2.2-0.00329 4.39-0.00429 6.59-0.00383 5.79-0.0137 11.6-0.0247 17.4-0.0102 5.91-0.0148 11.8-0.0198 17.7-0.00941 10.2-0.0232 20.3-0.0412 30.5-0.00214 1.21-0.00214 1.21-0.00432 2.44-0.00108 0.612-0.00217 1.22-0.00329 1.85-12.9 0.744-25.8 1.15-38.7 1.13-1.79 0.00116-3.57 0.00275-5.36 0.00473-4.84 0.00413-9.68 0.00213-14.5-9.86e-4 -5.25-0.00228-10.5 0.00124-15.7 0.00398-10.2 0.00443-20.5 0.0035-30.7 5.87e-4 -8.32-0.00226-16.6-0.00256-25-0.00148-1.19 1.53e-4 -2.37 3.06e-4 -3.6 4.64e-4 -2.41 3.2e-4 -4.82 6.44e-4 -7.24 9.73e-4 -22.6 0.00284-45.1-4.18e-4 -67.7-0.0058-19.4-0.00448-38.7-0.00368-58.1 9.19e-4 -22.5 0.00535-45 0.00746-67.6 0.00439-2.4-3.19e-4 -4.8-6.33e-4 -7.19-9.43e-4 -1.18-1.54e-4 -2.36-3.09e-4 -3.57-4.68e-4 -8.32-8.65e-4 -16.6 5.96e-4 -25 0.00295-10.1 0.0028-20.3 0.00206-30.4-0.00328-5.17-0.00264-10.3-0.00364-15.5-3.51e-4 -4.72 0.00296-9.45 0.00137-14.2-0.00398-1.72-0.00112-3.43-5.34e-4 -5.15 0.00188-2.32 0.00301-4.64-4.51e-5 -6.95-0.00472-1.94-2.44e-4 -1.94-2.44e-4 -3.91-4.92e-4 -2.98-0.125-2.98-0.125-4.98-1.13-1.11-18.4-1.22-36.7-1.24-55.1-0.00558-4.28-0.0299-8.56-0.058-12.8-0.0186-3.32-0.0238-6.64-0.0254-9.96-0.00302-1.58-0.011-3.16-0.0242-4.74-0.017-2.19-0.0152-4.38-0.00869-6.56-0.00547-1.86-0.00547-1.86-0.011-3.76 0.367-3.02 0.367-3.02 1.62-4.92 2.2-1.38 3.55-1.49 6.14-1.52 0.908-0.0166 1.82-0.0332 2.75-0.0503 1.01-0.00321 2.02-0.00642 3.05-0.00972 1.08-0.0152 2.17-0.0303 3.29-0.046 3.7-0.048 7.39-0.0748 11.1-0.102 2.63-0.0313 5.27-0.0639 7.9-0.0979 14.7-0.182 29.4-0.285 44.1-0.403 8.87-0.0714 17.7-0.148 26.6-0.227 6.64-0.0582 13.3-0.106 19.9-0.146 4.21-0.027 8.41-0.0618 12.6-0.0984 1.97-0.0155 3.94-0.0276 5.91-0.0361 16.2-0.0725 30.1-0.411 42.7-12.1 9.56-10.3 12-21.6 11.9-35.2 0.00381-1.06 0.00761-2.13 0.0115-3.22 0.0103-3.56 0.00641-7.13 0.00256-10.7 0.00445-2.58 0.00977-5.16 0.0159-7.74 0.0118-5.61 0.0162-11.2 0.0157-16.8-7.94e-4 -8.35 0.00977-16.7 0.0224-25 0.0247-16.6 0.0335-33.3 0.0385-49.9 2.61e-4 -0.862 5.22e-4 -1.72 7.91e-4 -2.61 3.9e-4 -1.29 3.9e-4 -1.29 7.89e-4 -2.62 0.00308-9.57 0.00959-19.1 0.0162-28.7 0.0196-28.9 0.0361-57.8 0.0389-86.7 9.41e-5 -0.924 1.88e-4 -1.85 2.85e-4 -2.8 3.78e-4 -3.75 7.42e-4 -7.49 0.0011-11.2 2.72e-4 -2.82 5.48e-4 -5.64 8.25e-4 -8.46 1.32e-4 -1.4 1.32e-4 -1.4 2.67e-4 -2.82 0.00291-29.3 0.025-58.6 0.0613-87.8 0.0407-32.9 0.0644-65.8 0.0647-98.7 9.68e-5 -3.51 2.64e-4 -7.02 4.8e-4 -10.5 4.41e-5 -0.864 8.82e-5 -1.73 1.34e-4 -2.62 0.00112-13.9 0.0185-27.8 0.0417-41.7 0.0228-14 0.0271-27.9 0.0125-41.9-0.00815-8.3-0.00247-16.6 0.0232-24.9 0.0176-6.2 0.00905-12.4-0.00965-18.6-0.0035-2.51 0.00144-5.01 0.0157-7.52 0.0975-18.3-1.28-30.7-14.5-44.4-9.13-8.56-18.3-11.2-30.5-11.2-0.954-0.00314-1.91-0.00628-2.89-0.00952-3.22-0.00937-6.43-0.0116-9.65-0.014-2.32-0.00528-4.65-0.011-6.97-0.0171-5.73-0.0139-11.5-0.0232-17.2-0.0306-6.86-0.00906-13.7-0.0239-20.6-0.0388-13.5-0.0292-26.9-0.0527-40.4-0.0737-11.8-0.0185-23.6-0.0388-35.4-0.0608-0.784-0.00146-1.57-0.00293-2.37-0.00443-3.18-0.00594-6.36-0.0119-9.55-0.0178-29.9-0.0559-59.8-0.106-89.7-0.153-26.5-0.0421-52.9-0.0895-79.4-0.141-29.8-0.0585-59.5-0.113-89.3-0.163-3.19-0.00529-6.38-0.0106-9.57-0.0159-0.786-0.0013-1.57-0.00261-2.38-0.00395-11.8-0.0196-23.5-0.0418-35.3-0.0655-13.4-0.027-26.9-0.05-40.3-0.0681-6.83-0.00928-13.7-0.0203-20.5-0.0361-16.8-0.0379-33.5-0.0315-50.3 0.0553-1.81 0.0085-1.81 0.0085-3.67 0.0172-7.3 0.037-14.6 0.0989-21.9 0.194-2.26 0.0271-4.53 0.0478-6.79 0.0617-3.11 0.0209-6.22 0.0668-9.33 0.119-0.901 0.00111-1.8 0.00223-2.73 0.00338-8.83 0.202-16.2 3.35-23.5 8.17-0.896 0.579-1.79 1.16-2.71 1.75-2.34 1.57-2.34 1.57-4.04 3.4-1.31 1.29-1.31 1.29-3.31 1.29l-0.816 1.7c-1.69 3.28-3.68 6.35-5.65 9.47-3.51 6.47-4.98 12-5.04 19.2-0.0176 0.809-0.0352 1.62-0.0533 2.45-0.0541 2.7-0.0868 5.39-0.118 8.09-0.0327 1.96-0.0661 3.91-0.1 5.87-0.387 24-0.371 48-0.367 72 1.86e-4 6.18-0.00434 12.4-0.00861 18.5-0.00955 14.1-0.0125 28.3-0.0131 42.4-4.63e-4 10.9-0.00254 21.8-0.0057 32.7-8.98e-4 3.16-0.00179 6.33-0.00267 9.49-2.21e-4 0.787-4.42e-4 1.57-6.7e-4 2.38-0.00613 22-0.0101 44.1-0.00966 66.1 1.56e-5 0.827 3.12e-5 1.65 4.72e-5 2.51 8.31e-5 4.19 1.82e-4 8.38 2.85e-4 12.6 1.99e-5 0.832 3.99e-5 1.66 6.04e-5 2.52 4.04e-5 1.68 8.22e-5 3.36 1.25e-4 5.05 6.14e-4 26.2-0.00693 52.5-0.0206 78.7-0.0154 29.6-0.024 59.2-0.023 88.8 7.46e-5 3.15 1.23e-4 6.31 1.54e-4 9.46 1.17e-5 0.777 2.33e-5 1.55 3.53e-5 2.35 3.07e-5 12.5-0.00634 24.9-0.015 37.4-0.00849 12.5-0.00946 25-0.00289 37.5 0.00336 6.77 0.00333 13.5-0.00535 20.3-0.00788 6.2-0.00642 12.4 0.00228 18.6 0.00153 2.24-2.69e-4 4.47-0.00586 6.71-0.794 23.1-0.794 23.1 5.69 44.9 0.597 1.11 1.19 2.22 1.81 3.37 1.46 2.29 2.83 3.89 4.75 5.76v2c0.574 0.271 1.15 0.541 1.74 0.82 2.3 1.2 4.33 2.56 6.45 4.05 9.69 6.52 18.4 8.19 29.9 8.67 1.45 0.0627 1.45 0.0627 2.94 0.127 9.98 0.408 20 0.553 30 0.647 1.9 0.0207 3.79 0.0417 5.69 0.063 4.91 0.0543 9.82 0.104 14.7 0.153 5.04 0.0509 10.1 0.106 15.1 0.161 9.83 0.106 19.7 0.208 29.5 0.307 2.43 4.73 2.23 9.02 2.14 14.2-0.0142 1.38-0.0142 1.38-0.0287 2.78-0.0336 3.02-0.0817 6.05-0.13 9.07-0.0262 2.1-0.0514 4.2-0.0758 6.3-0.0666 5.52-0.145 11-0.227 16.6-0.081 5.64-0.15 11.3-0.221 16.9-0.14 11.1-0.292 22.1-0.453 33.2-9.28 1.17-18.5 1.15-27.9 1.14-1.82 0.00259-3.64 0.0056-5.45 9e-3 -4.98 0.00804-9.96 0.00986-14.9 0.0106-5.38 0.00186-10.8 0.00941-16.1 0.0161-11.7 0.0136-23.5 0.0196-35.2 0.024-7.33 0.00276-14.7 7e-3 -22 0.0115-20.3 0.0122-40.6 0.0225-60.9 0.0259-1.3 2.2e-4 -2.59 4.39e-4 -3.93 6.65e-4 -1.3 2.18e-4 -2.6 4.37e-4 -3.94 6.61e-4 -2.63 4.43e-4 -5.27 8.9e-4 -7.9 0.00134-1.96 3.32e-4 -1.96 3.32e-4 -3.96 6.71e-4 -21.2 0.00395-42.4 0.0214-63.6 0.0447-21.8 0.0237-43.5 0.0362-65.3 0.0373-12.2 9.18e-4 -24.5 0.00671-36.7 0.0248-10.4 0.0154-20.8 0.0206-31.2 0.0123-5.31-0.00392-10.6-0.00289-15.9 0.0111-4.85 0.0126-9.71 0.0116-14.6-5.91e-4 -1.76-0.00197-3.53 0.0012-5.29 0.00984-2.38 0.0109-4.76 0.00371-7.15-0.00839-0.696 0.0076-1.39 0.0152-2.11 0.023-1.91-0.0212-1.91-0.0212-4.96-0.395-2.63-3.95-2.29-7.34-2.27-11.9-0.00511-0.912-0.0102-1.82-0.0155-2.77-0.0139-3.02-0.0129-6.04-0.0106-9.06-0.00389-2.1-0.00822-4.19-0.013-6.29-0.00747-4.39-0.00717-8.79-0.00191-13.2 0.0058-5.64-0.0111-11.3-0.0343-16.9-0.0147-4.33-0.0156-8.66-0.0125-13-5.14e-4 -2.08-0.00577-4.16-0.0158-6.24-0.0123-2.9-0.00561-5.81 0.00601-8.71-0.00764-0.863-0.0153-1.73-0.0232-2.62 0.0522-5.88 0.0522-5.88 1.78-8.03 2.18-1.73 3.58-1.67 6.35-1.7 0.984-0.0166 1.97-0.0332 2.98-0.0503 1.09-0.00321 2.18-0.00642 3.3-0.00972 1.16-0.0152 2.33-0.0303 3.53-0.046 3.25-0.0395 6.51-0.0657 9.76-0.0869 3.48-0.0262 6.95-0.0709 10.4-0.113 9.75-0.115 19.5-0.196 29.3-0.277 3.99-0.0332 7.98-0.0666 12-0.1 1.54-0.0129 1.54-0.0129 3.11-0.026 8.43-0.071 16.9-0.148 25.3-0.227 6.26-0.0581 12.5-0.106 18.8-0.146 3.96-0.027 7.91-0.0618 11.9-0.0984 1.85-0.0154 3.69-0.0276 5.54-0.0361 16.2-0.0779 29.4-0.381 41.7-12.1 11.2-11.7 13.9-25 13.9-40.7 0.00308-1.57 0.00308-1.57 0.00622-3.16 0.00567-3.51 0.00421-7.01 0.00279-10.5 0.00258-2.54 0.0056-5.07 9e-3 -7.61 0.00723-6.25 0.00977-12.5 0.0103-18.7 9.15e-4 -7.48 0.00758-15 0.0143-22.4 0.0161-18.1 0.022-36.2 0.0267-54.2 0.00234-8.55 0.00594-17.1 0.0097-25.7 0.0128-29.3 0.0236-58.5 0.027-87.8 2.22e-4 -1.84 4.43e-4 -3.67 6.65e-4 -5.51 2.21e-4 -1.84 4.41e-4 -3.68 6.61e-4 -5.52 4.43e-4 -3.69 8.9e-4 -7.39 0.00134-11.1 1.09e-4 -0.916 2.19e-4 -1.83 3.31e-4 -2.78 0.00363-29.7 0.0196-59.4 0.0429-89.1 0.0246-31.4 0.0383-62.8 0.0395-94.2 1.71e-4 -3.45 3.87e-4 -6.9 6.34e-4 -10.3 5.58e-5 -0.849 1.12e-4 -1.7 1.69e-4 -2.57 0.00115-13.7 0.0122-27.3 0.0267-41 0.0144-13.7 0.0176-27.5 0.00956-41.2-0.00446-8.16-5.88e-4 -16.3 0.0152-24.5 0.0109-6.09 0.00612-12.2-0.00477-18.3-0.00196-2.46 0.00116-4.93 0.00984-7.39 0.0111-3.35 0.00363-6.7-0.00839-10 0.0076-0.958 0.0152-1.92 0.023-2.9-0.104-13.4-5.5-25.1-14.7-34.8-8.26-7.76-17-12.4-28.5-12.4-0.98-0.00657-0.98-0.00657-1.98-0.0133-2.17-0.0122-4.34-0.0105-6.51-0.00882-1.56-0.00603-3.13-0.013-4.69-0.0207-3.35-0.0148-6.71-0.0236-10.1-0.0277-5.3-0.00673-10.6-0.0285-15.9-0.0525-12.2-0.0531-24.4-0.0865-36.6-0.12-11.2-0.0307-22.4-0.0655-33.6-0.116-5.27-0.0234-10.5-0.0371-15.8-0.0435-3.27-0.00593-6.55-0.02-9.82-0.0363-1.52-0.00589-3.04-0.00835-4.56-0.00716-2.07 0.00115-4.14-0.00982-6.22-0.0239-1.16-0.00293-2.32-0.00587-3.52-0.00889-2.83-0.256-2.83-0.256-5.83-2.26-1.47-4.09-1.17-8.43-1.19-12.7-0.00818-0.88-0.0164-1.76-0.0248-2.67-0.0248-2.91-0.0413-5.82-0.0558-8.73-0.00532-0.994-0.0106-1.99-0.0161-3.01-0.0267-5.26-0.0461-10.5-0.0605-15.8-0.0134-4.35-0.0413-8.7-0.082-13.1-0.0492-5.26-0.0741-10.5-0.0812-15.8-0.00672-2-0.022-4.01-0.0459-6.01-0.0316-2.8-0.0317-5.6-0.0243-8.4-0.0164-0.827-0.0328-1.65-0.0497-2.51 0.0457-4.21 0.29-5.89 2.89-9.37 2.8-2.02 3.85-2.6 7.22-2.53 1.32 0.00533 1.32 0.00533 2.66 0.0108 1.44 0.0435 1.44 0.0435 2.92 0.0879 1.04 0.0099 2.09 0.0198 3.17 0.03 2.32 0.024 4.63 0.0591 6.95 0.104 5.82 0.109 11.6 0.145 17.5 0.186 2.18 0.0162 4.37 0.0354 6.55 0.0547 19.6 0.161 39.3-0.0394 58.9-0.235 5.36-0.0528 10.7-0.094 16.1-0.132 4.08-0.0312 8.15-0.0707 12.2-0.113 1.91-0.0182 3.82-0.0333 5.73-0.045 17.1-0.109 31-1.34 44.2-13.6 10.2-11.3 13.1-22.9 13.1-37.9 0.00698-1.14 0.014-2.28 0.0211-3.46 0.0199-3.74 0.0195-7.49 0.0196-11.2 0.0118-2.64 0.0252-5.27 0.04-7.91 0.0408-7.63 0.0595-15.3 0.0762-22.9 0.0224-9.67 0.0567-19.3 0.107-29 0.0226-4.48 0.0296-8.96 0.0331-13.4 0.0629-21 1.11-41.9 4.74-62.5 0.183-1.06 0.183-1.06 0.37-2.15 4.57-26.2 11.5-52.9 22.2-77.3 0.412-0.946 0.824-1.89 1.25-2.87 4.68-10.7 9.64-21.2 15-31.5 0.376-0.73 0.751-1.46 1.14-2.21 2.57-4.85 5.55-9.29 8.74-13.8 1.95-2.76 3.82-5.56 5.67-8.39 7.31-11.1 14.6-22.1 23.2-32.3 0.469-0.569 0.937-1.14 1.42-1.72 11.7-14.2 24.7-27.3 38.6-39.3 1.11-0.984 2.21-1.97 3.32-2.96 7.54-6.67 15.3-12.4 23.8-17.8 1.83-1.19 3.64-2.4 5.45-3.63 57.9-39.5 121-56.8 191-61.7z" fill="#FBFDFD"/>
<path transform="translate(507 798)" d="m0 0c1.87-0.00444 1.87-0.00444 3.78-0.00897 1.41 0.0121 2.81 0.0246 4.22 0.0373 1.51 0.00275 3.02 0.00423 4.54 0.00458 4.25 0.00514 8.49 0.0299 12.7 0.0576 3.69 0.0215 7.39 0.0314 11.1 0.0413 14.6 0.0393 29.2 0.13 43.8 0.225 1.37 0.00884 2.74 0.0177 4.11 0.0265 26.5 0.171 53 0.355 79.4 0.543 39.5 0.281 78.9 0.555 118 0.555h2.94c32.8-0.00548 65.6-0.335 98.5-0.765 20.6-0.268 41.1-0.47 61.7-0.485 1.1-0.0025 2.2-5e-3 3.34-0.00757 11-0.0211 22.1 0.109 33.1 0.578 1.42 0.0581 1.42 0.0581 2.88 0.117 1.3 0.062 1.3 0.062 2.62 0.125 0.764 0.0359 1.53 0.0717 2.31 0.109 1.75 0.203 1.75 0.203 2.75 1.2 0.0989 2.65 0.132 5.27 0.123 7.92 0.00115 0.844 0.00231 1.69 0.0035 2.56 0.00267 2.86-0.00186 5.73-0.00629 8.59 4.36e-4 2.06 0.00131 4.12 0.00259 6.18 0.00225 5.69-0.00178 11.4-0.00678 17.1-0.0043 6.12-0.00286 12.2-0.0021 18.4 5.26e-4 10.6-0.00259 21.2-0.00824 31.8-0.00591 11.1-0.00976 22.3-0.0109 33.4-6.87e-5 0.692-1.37e-4 1.38-2.08e-4 2.1-3.38e-4 3.51-6.4e-4 7.03-9.27e-4 10.5-0.0021 24.9-0.00884 49.8-0.0183 74.7-0.00918 24.2-0.0163 48.4-0.0205 72.6-1.32e-4 0.745-2.63e-4 1.49-3.99e-4 2.26-0.00132 7.49-0.00259 15-0.00384 22.5-0.00254 15.2-0.00536 30.5-0.00835 45.7-1.37e-4 0.701-2.75e-4 1.4-4.16e-4 2.12-0.00921 46.9-0.0251 93.7-0.0419 141-0.816 0.00147-1.63 0.00293-2.47 0.00444-19.9 0.0371-39.8 0.0961-59.6 0.179-9.61 0.0398-19.2 0.0722-28.8 0.0871-8.38 0.013-16.8 0.04-25.1 0.0836-4.44 0.0226-8.87 0.0383-13.3 0.0373-4.18-7.48e-4 -8.36 0.0172-12.5 0.0493-1.53 0.00848-3.06 0.0103-4.59 0.00463-8.24-0.0263-15.2 0.256-22.5 4.55-0.98 0.53-1.96 1.06-2.97 1.61-11.9 7.42-21.9 17.6-25.6 31.6-0.569 3.79-0.658 7.55-0.736 11.4-0.0205 0.868-0.041 1.74-0.0621 2.63-0.0663 2.93-0.124 5.87-0.181 8.8-0.0209 1.03-0.0419 2.07-0.0634 3.14-0.575 29.1-0.534 58.2-0.51 87.3 0.00379 5.32 0.00238 10.6-0.0018 15.9-0.0148 19.5 0.00701 39.1 0.13 58.6 0.00649 1.07 0.013 2.14 0.0197 3.24 0.0362 5.38 0.0936 10.8 0.197 16.1 0.0265 1.46 0.0471 2.92 0.0608 4.38 0.145 13.9 4.23 24.6 13.7 34.8 4.63 4.53 9.74 7.56 15.4 10.7 2.62 1.82 2.62 1.82 3.62 5.82h-218c2.25-4.5 3.26-4.96 7.56-7.19 9.8-5.52 19.5-14.5 23-25.6 0.538-2.77 0.595-5.4 0.636-8.23 0.0199-1.25 0.0399-2.5 0.0604-3.78 0.0171-1.4 0.034-2.8 0.0507-4.2 0.0209-1.51 0.042-3.01 0.0632-4.52 0.0571-4.19 0.106-8.39 0.153-12.6 0.0299-2.67 0.0614-5.34 0.093-8.01 0.429-36.9 0.484-73.7 0.496-111 0.00165-4.64 0.00461-9.28 0.0087-13.9 0.00716-8.16 0.00849-16.3 0.00357-24.5-0.00152-2.75-8.55e-4 -5.5 0.00176-8.25 0.00256-3.8-0.00125-7.6-0.00675-11.4 0.00203-1.1 0.00405-2.21 0.00614-3.35-0.046-16.9-3.49-28.2-15.1-40.9-10.3-9.86-20.8-13.3-34.8-13.3-1.05-0.00844-2.1-0.0169-3.19-0.0256-3.45-0.0257-6.91-0.0379-10.4-0.0504-2.41-0.0162-4.81-0.0334-7.22-0.0515-6.32-0.0456-12.6-0.0805-18.9-0.112-10.1-0.052-20.3-0.117-30.4-0.188-3.54-0.0229-7.08-0.0391-10.6-0.0547-2.16-0.0134-4.32-0.027-6.47-0.0409-0.99-0.00261-1.98-0.00523-3-0.00792-0.9-0.0069-1.8-0.0138-2.73-0.0209-0.784-0.00385-1.57-0.00771-2.38-0.0117-1.91-0.133-1.91-0.133-3.91-1.13-0.0513-47.3-0.0991-94.7-0.127-142-4.14e-4 -0.7-8.28e-4 -1.4-0.00126-2.12-0.00898-15.2-0.0173-30.4-0.0249-45.6-0.00374-7.46-0.00763-14.9-0.0116-22.4-3.92e-4 -0.743-7.85e-4 -1.49-0.00119-2.25-0.0128-24.1-0.0353-48.2-0.0629-72.3-0.0283-24.7-0.0468-49.5-0.0529-74.2-8.65e-4 -3.49-0.00184-6.98-0.00289-10.5-2.02e-4 -0.687-4.05e-4 -1.37-6.13e-4 -2.08-0.00355-11.1-0.0175-22.2-0.0353-33.2-0.0176-11.1-0.0242-22.3-0.02-33.4 0.00193-6.03-0.00112-12.1-0.0171-18.1-0.0145-5.52-0.0154-11-0.00508-16.5 0.00128-2-0.0026-4.01-0.012-6.01-0.0119-2.71-0.00562-5.42 0.00551-8.13-0.00788-0.789-0.0158-1.58-0.0239-2.39 0.0491-5.24 0.0491-5.24 1.75-7.72 2.51-1.55 4.58-1.38 7.51-1.37z" fill="#FBFDFD"/>
<path transform="translate(0)" d="m0 0c151-0.0808 151-0.0808 209-0.0963 15.1-0.00408 30.2-0.00826 45.3-0.0127 1.83-5.4e-4 3.65-0.00108 5.48-0.00161 29.1-0.00854 58.2-0.0236 87.4-0.0419 29.9-0.0189 59.8-0.0312 89.8-0.0352 4.22-5.76e-4 8.44-0.00123 12.7-0.00192 0.831-1.35e-4 1.66-2.7e-4 2.52-4.09e-4 13.4-0.00237 26.8-0.0117 40.2-0.0235 13.5-0.0118 26.9-0.0163 40.4-0.0133 8 0.00153 16-0.00257 24-0.0146 5.96-0.00835 11.9-0.00635 17.9-2.03e-4 2.42 8.5e-4 4.84-0.00173 7.26-0.00797 3.28-0.00795 6.55-0.00374 9.83 0.00367 1.43-0.00788 1.43-0.00788 2.89-0.0159 0.87 0.00449 1.74 0.00899 2.64 0.0136 1.12-4.68e-4 1.12-4.68e-4 2.27-9.45e-4 2.38 0.285 4.01 1.07 6.08 2.25l-3.46 0.262c-42.2 3.53-85 15.6-124 32.2-2.81 1.2-5.63 2.35-8.47 3.48-15.4 6.15-30.1 13.3-44.2 22.1-1.54 0.947-3.07 1.89-4.61 2.84-16.4 10.2-32.2 21-47.5 32.7-1.82 1.39-3.65 2.77-5.49 4.14-5.18 3.9-10.2 7.79-14.6 12.5-1.75 1.78-3.56 3.39-5.46 5.01-4.03 3.5-7.87 7.17-11.7 10.9-1.01 1-1.01 1-2.04 2.02-1.41 1.4-2.83 2.81-4.24 4.22-2.12 2.11-4.25 4.21-6.38 6.31-8.36 8.29-15.9 16.8-23 26.3-0.566 0.75-1.13 1.5-1.71 2.27-1.3 1.73-2.58 3.47-3.85 5.23-0.675 0.928-0.675 0.928-1.36 1.87-1.36 1.87-2.72 3.75-4.07 5.63-0.416 0.572-0.832 1.14-1.26 1.73-23.3 32.1-44.4 66.7-57.1 104-1.26 3.73-2.6 7.43-3.96 11.1-11.5 31.2-20.2 62.8-24 95.8-0.0815 0.713-0.163 1.43-0.247 2.16-2.46 21.9-2.7 43.9-2.97 65.9-0.0509 4.04-0.106 8.09-0.161 12.1-0.106 7.88-0.208 15.8-0.307 23.6-1.11 0.00635-1.11 0.00635-2.24 0.0128-18 0.104-36 0.212-54 0.327-8.71 0.0551-17.4 0.109-26.1 0.158-7.6 0.0431-15.2 0.0895-22.8 0.14-4.02 0.0264-8.04 0.0512-12.1 0.0722-3.8 0.0199-7.59 0.0441-11.4 0.0714-2.03 0.0135-4.06 0.0227-6.09 0.0316-18.4-0.574-18.4-0.574-35.6 4.69-0.658 0.355-1.32 0.711-1.99 1.08-9.87 5.55-16.3 12.5-21.6 22.4-1.54 2.8-1.54 2.8-3 5h-2v-533z" fill="#FBFDFD"/>
<path transform="translate(0,766)" d="m0 0c3.12 3.12 5.22 5.67 7.62 9.25 6.55 9.08 17.9 19 29.1 21.3 3.36 0.441 6.58 0.565 9.96 0.584 0.65 0.00494 1.3 0.00988 1.97 0.015 2.16 0.0153 4.33 0.0237 6.49 0.0321 1.56 0.00959 3.12 0.0196 4.67 0.03 4.22 0.027 8.44 0.048 12.7 0.068 4.41 0.0219 8.82 0.0493 13.2 0.0761 8.35 0.0499 16.7 0.0948 25.1 0.138 9.51 0.0494 19 0.104 28.5 0.16 19.6 0.114 39.1 0.221 58.7 0.323 1.58 3.16 1.13 6.56 1.12 10 0.00115 0.845 0.00231 1.69 0.0035 2.56 0.00267 2.86-0.00186 5.72-0.00629 8.59 4.36e-4 2.06 0.00131 4.12 0.00259 6.18 0.00225 5.68-0.00178 11.4-0.00678 17.1-0.0043 6.12-0.00286 12.2-0.0021 18.4 5.25e-4 10.6-0.00259 21.2-0.00824 31.8-0.00591 11.1-0.00976 22.3-0.0109 33.4-6.87e-5 0.692-1.37e-4 1.38-2.08e-4 2.1-3.38e-4 3.51-6.4e-4 7.02-9.27e-4 10.5-0.0021 24.9-0.00884 49.8-0.0183 74.7-0.00918 24.2-0.0163 48.4-0.0205 72.6-1.32e-4 0.745-2.63e-4 1.49-3.99e-4 2.26-0.00132 7.48-0.00259 15-0.00384 22.5-0.00254 15.2-0.00536 30.5-0.00835 45.7-2.06e-4 1.05-2.06e-4 1.05-4.16e-4 2.12-0.0092 46.8-0.0251 93.7-0.0419 141-0.796 0.00331-1.59 0.00662-2.41 0.01-19.4 0.0813-38.8 0.173-58.1 0.277-9.37 0.0501-18.7 0.0965-28.1 0.134-8.17 0.033-16.3 0.0729-24.5 0.121-4.32 0.0252-8.65 0.047-13 0.0606-4.08 0.0129-8.15 0.035-12.2 0.064-1.49 0.00903-2.98 0.0148-4.47 0.0168-16.1 0.0264-29.5 3.36-41.6 14.6-5.02 5.61-8.93 12.1-12.5 18.7h-2v-567z" fill="#FBFDFD"/>
<path transform="translate(1134 -.293)" d="m0 0c1.25 0.00424 2.5 0.00849 3.8 0.0129 3.3 0.0139 6.6 0.0407 9.9 0.0741 3.38 0.0309 6.76 0.0444 10.1 0.0595 6.61 0.033 13.2 0.0831 19.8 0.146v2c1.28 0.0206 2.56 0.0412 3.88 0.0625 30.6 3.14 62.6 27.1 81.6 49.9 5.83 7.3 10.7 15 15.5 23 0.522 0.806 1.04 1.61 1.58 2.44 13.8 21.5 17.9 46.3 17.7 71.3-0.00273 1.18-0.00273 1.18-0.00552 2.39-0.0459 11.8-0.47 23.3-3.31 34.9-0.166 0.71-0.333 1.42-0.504 2.15-2.67 11.1-7.03 20.9-12.5 30.8-0.544 1.02-1.09 2.05-1.65 3.11-18.5 33.5-49.3 57.9-85.5 70.1-14.7 4.18-28.5 6.04-43.7 6.05-1.11 0.00101-1.11 0.00101-2.24 0.00204-10.9-0.0158-21.2-0.451-31.8-3.25-0.689-0.177-1.38-0.354-2.09-0.536-22.3-5.82-41.5-15.7-59.9-29.5-0.947-0.699-1.89-1.4-2.87-2.12-4.6-3.46-4.6-3.46-6.13-4.88v-2c-0.596-0.272-1.19-0.544-1.8-0.824-20.3-10.9-32.9-44-39.4-64.7-11.7-40-4.32-80.6 14.7-117 19.1-34.4 53.6-57.4 90.1-69.7 1.44-0.504 2.87-1.04 4.28-1.62 6.78-2.64 13.2-2.59 20.4-2.5z" fill="#000100"/>
<path transform="translate(1178 107)" d="m0 0c5.92 4.32 9.92 9.37 13.9 15.5 0.377 0.565 0.754 1.13 1.14 1.71 5.02 7.9 6.65 15.5 6.54 24.8-0.0083 0.925-0.0166 1.85-0.0251 2.8-0.325 13.1-5.77 24-14.7 33.6-10.8 9.94-24.7 14.1-39.2 13.6-13.3-1.45-26.3-6.93-35.6-16.8-8.65-11.8-13.1-24.9-11.9-39.6 2.81-13.9 9.23-26.2 21.2-34.1 19-11.7 39.2-14.1 58.6-1.48z" fill="#FBFDFD"/>
<path transform="translate(0,1565)" d="m0 0c2.58 2.58 3.76 4.18 5.38 7.31 5.98 10.9 14.9 16.4 25.7 22.2 1.93 1.46 1.93 1.46 2.93 5.46h-34v-35z" fill="#FBFDFD"/>
</svg>
